<?xml version="1.0" encoding="UTF-8"?>
<!-- Created with Inkscape (http://www.inkscape.org/) -->
<svg width="12" height="16" version="1.1" viewBox="0 0 3.175 4.2333" xmlns="http://www.w3.org/2000/svg">
 <g transform="translate(4.4448 -84.944)">
  <path d="m-3.9156 84.944c-0.29187 0-0.52917 0.2373-0.52917 0.52917v3.175c0 0.29187 0.2373 0.52917 0.52917 0.52917h2.1167c0.29187 0 0.52917-0.2373 0.52917-0.52917v-2.3812h-1.0583c-0.14635 0-0.26458-0.11824-0.26458-0.26458v-1.0583zm1.5875 0v1.0583h1.0583zm-0.8293 2.0687 0.30014 0.42912 0.30014-0.42912c0.062838-0.09012 0.18686-0.11162 0.27616-0.04878 0.089297 0.06284 0.11162 0.18686 0.048782 0.27616l-0.38282 0.54818 0.38365 0.54736c0.062839 0.09012 0.041341 0.21332-0.048782 0.27616-0.090124 0.06284-0.21332 0.04134-0.27616-0.04878l-0.30096-0.42912-0.30014 0.42912c-0.062838 0.09012-0.18686 0.11162-0.27616 0.04878-0.089297-0.06284-0.11162-0.18686-0.048782-0.27616l0.38282-0.54736-0.38365-0.54736c-0.062839-0.09012-0.041341-0.21332 0.048782-0.27616 0.090124-0.06284 0.21332-0.04134 0.27616 0.04878z" fill="#008000" stroke-width=".0082682"/>
 </g>
</svg>
