<?xml version="1.0" encoding="UTF-8"?>
<!-- Created with Inkscape (http://www.inkscape.org/) -->
<svg width="20" height="16" version="1.1" viewBox="0 0 5.2917 4.2333" xmlns="http://www.w3.org/2000/svg">
 <g transform="translate(-9.9106 -133.33)">
  <path d="m11.101 133.33a0.66146 0.66146 0 1 1 0 1.3229 0.66146 0.66146 0 1 1 0-1.3229zm3.0427 0a0.66146 0.66146 0 1 1 0 1.3229 0.66146 0.66146 0 1 1 0-1.3229zm-4.2333 2.4697c0-0.487 0.39522-0.88222 0.88222-0.88222h0.35305c0.13146 0 0.25632 0.0289 0.36876 0.0802-0.01075 0.0595-0.01571 0.12154-0.01571 0.18439 0 0.31584 0.13891 0.59944 0.35802 0.79374h-0.0058-1.7644c-0.096738 0-0.17611-0.0794-0.17611-0.17611zm3.3511 0.17611h-0.0058c0.21994-0.1943 0.35801-0.4779 0.35801-0.79374 0-0.0628-0.0058-0.12403-0.01571-0.18439 0.11245-0.0521 0.2373-0.0802 0.36876-0.0802h0.35305c0.487 0 0.88222 0.39522 0.88222 0.88222 0 0.0976-0.07938 0.17611-0.17611 0.17611zm-1.499-0.79374a0.79375 0.79375 0 1 1 1.5875 0 0.79375 0.79375 0 1 1-1.5875 0zm-0.79375 2.1605c0-0.60854 0.49361-1.1022 1.1022-1.1022h0.97069c0.60854 0 1.1022 0.49362 1.1022 1.1022 0 0.12154-0.09839 0.22076-0.22076 0.22076h-2.7335c-0.12154 0-0.22076-0.0984-0.22076-0.22076z" fill="#f00" stroke-width=".0082682"/>
 </g>
</svg>
