<?xml version="1.0" encoding="UTF-8" standalone="no"?>
<!-- Created with Inkscape (http://www.inkscape.org/) -->

<svg
   xmlns:dc="http://purl.org/dc/elements/1.1/"
   xmlns:cc="http://creativecommons.org/ns#"
   xmlns:rdf="http://www.w3.org/1999/02/22-rdf-syntax-ns#"
   xmlns:svg="http://www.w3.org/2000/svg"
   xmlns="http://www.w3.org/2000/svg"
   xmlns:sodipodi="http://sodipodi.sourceforge.net/DTD/sodipodi-0.dtd"
   xmlns:inkscape="http://www.inkscape.org/namespaces/inkscape"
   width="3.4400001mm"
   height="3.4400001mm"
   viewBox="0 0 3.4400001 3.4400001"
   version="1.1"
   id="svg8"
   inkscape:version="0.92.1 r15371"
   sodipodi:docname="sun.svg">
  <defs
     id="defs2" />
  <sodipodi:namedview
     id="base"
     pagecolor="#ffffff"
     bordercolor="#666666"
     borderopacity="1.0"
     inkscape:pageopacity="0.0"
     inkscape:pageshadow="2"
     inkscape:zoom="31.678384"
     inkscape:cx="-0.72001875"
     inkscape:cy="6.2266955"
     inkscape:document-units="mm"
     inkscape:current-layer="layer1"
     showgrid="false"
     inkscape:window-width="1600"
     inkscape:window-height="837"
     inkscape:window-x="-8"
     inkscape:window-y="-8"
     inkscape:window-maximized="1" />
  <metadata
     id="metadata5">
    <rdf:RDF>
      <cc:Work
         rdf:about="">
        <dc:format>image/svg+xml</dc:format>
        <dc:type
           rdf:resource="http://purl.org/dc/dcmitype/StillImage" />
        <dc:title></dc:title>
      </cc:Work>
    </rdf:RDF>
  </metadata>
  <g
     inkscape:label="Ebene 1"
     inkscape:groupmode="layer"
     id="layer1"
     transform="translate(-66.260864,-147.84061)">
    <g
       style="fill:none;stroke:#000000;stroke-width:2;stroke-linecap:round;stroke-linejoin:round"
       id="g61"
       transform="matrix(0.14316342,0,0,0.14316342,66.262903,147.84265)">
      <circle
         id="circle26"
         r="5"
         cy="12"
         cx="12" />
      <line
         id="line28"
         y2="3"
         x2="12"
         y1="1"
         x1="12" />
      <line
         id="line30"
         y2="23"
         x2="12"
         y1="21"
         x1="12" />
      <line
         id="line32"
         y2="5.6399999"
         x2="5.6399999"
         y1="4.2199998"
         x1="4.2199998" />
      <line
         id="line34"
         y2="19.780001"
         x2="19.780001"
         y1="18.360001"
         x1="18.360001" />
      <line
         id="line36"
         y2="12"
         x2="3"
         y1="12"
         x1="1" />
      <line
         id="line38"
         y2="12"
         x2="23"
         y1="12"
         x1="21" />
      <line
         id="line40"
         y2="18.360001"
         x2="5.6399999"
         y1="19.780001"
         x1="4.2199998" />
      <line
         id="line42"
         y2="4.2199998"
         x2="19.780001"
         y1="5.6399999"
         x1="18.360001" />
    </g>
    <path
       style="fill:#91979c;fill-opacity:1;stroke:#91979c;stroke-width:0.03156727;stroke-opacity:1"
       d="M 5.9433843,9.6828334 C 5.4447488,9.5923578 4.9665358,9.3813288 4.5515756,9.0686468 3.2892337,8.1174436 2.9077921,6.3657266 3.6595302,4.972053 3.877228,4.5684554 4.2591777,4.1322349 4.6245218,3.869947 5.2357245,3.4311521 6.0942198,3.204326 6.8230735,3.2890598 7.6200123,3.3817088 8.268951,3.6982416 8.8078361,4.2571672 9.3916459,4.8626885 9.6782811,5.5237098 9.7124157,6.3432559 9.7384975,6.9694661 9.6520121,7.406014 9.4025912,7.9071399 8.9263627,8.8639577 8.0787014,9.5015865 7.0414477,9.6832422 6.7228923,9.739031 6.2521393,9.7388558 5.9433843,9.682835 Z M 7.0581591,8.6075712 C 7.3086075,8.5439372 7.6468362,8.3731053 7.8660731,8.1995115 8.5537105,7.655033 8.8483836,6.6618971 8.5692892,5.8294634 8.4444113,5.457 8.3202099,5.2614241 8.0161019,4.9583761 7.581271,4.5250611 7.11515,4.3325062 6.5010473,4.3325062 c -0.3743577,0 -0.6348881,0.060075 -0.9785852,0.2256508 C 5.3045066,4.6631566 5.2033349,4.7384603 4.9834797,4.9593303 4.6814473,5.2627568 4.5567429,5.4598052 4.4328056,5.8294634 4.1441257,6.6904866 4.4573304,7.6842902 5.1919401,8.2382086 5.7163537,8.6336325 6.4129554,8.7715041 7.0581591,8.6075712 Z"
       id="path63"
       inkscape:connector-curvature="0"
       transform="matrix(0.26458333,0,0,0.26458333,66.260864,147.84061)" />
    <path
       style="fill:#91979c;fill-opacity:1;stroke:#91979c;stroke-width:0.03156727;stroke-opacity:1"
       d="M 0.27982335,6.9430132 C 0.09521519,6.8186057 0.02228847,6.6786911 0.03644846,6.4760828 0.05159382,6.2593754 0.14603703,6.1151874 0.32652363,6.0332203 0.43872664,5.9822638 0.53994635,5.9743654 1.088464,5.9737642 c 0.59402,-6.511e-4 0.6411121,0.00363 0.7731433,0.070333 0.3706258,0.1872343 0.3880195,0.6597298 0.033091,0.8989159 -0.1028425,0.069305 -0.1306502,0.071777 -0.8074377,0.071777 -0.67678745,0 -0.70459511,-0.00247 -0.80743725,-0.071777 z"
       id="path65"
       inkscape:connector-curvature="0"
       transform="matrix(0.26458333,0,0,0.26458333,66.260864,147.84061)" />
    <path
       style="fill:#91979c;fill-opacity:1;stroke:#91979c;stroke-width:0.03156727;stroke-opacity:1"
       d="M 2.8234607,3.5248962 C 2.7713747,3.4981258 2.5332608,3.2815979 2.2943187,3.0437232 1.8212503,2.5727681 1.7434368,2.4487606 1.7747048,2.2156406 1.7959528,2.0572244 1.9296618,1.8768424 2.0689937,1.8186258 c 0.1355313,-0.056629 0.3396938,-0.056259 0.4482538,8.104e-4 0.046883,0.024647 0.2934229,0.2554822 0.5478658,0.5129681 0.3810754,0.3856329 0.4689534,0.4918915 0.4985331,0.6028068 0.061799,0.2317282 -0.0528,0.4877895 -0.2629339,0.5875048 -0.1360244,0.064548 -0.3539689,0.065543 -0.4772518,0.00218 z"
       id="path67"
       inkscape:connector-curvature="0"
       transform="matrix(0.26458333,0,0,0.26458333,66.260864,147.84061)" />
    <path
       style="fill:#91979c;fill-opacity:1;stroke:#91979c;stroke-width:0.03156727;stroke-opacity:1"
       d="M 6.2958601,2.1086895 C 6.1616718,2.0487934 6.0395452,1.906157 5.9963163,1.7588407 5.9717453,1.6751069 5.9627878,1.4252124 5.9697255,1.01701 5.981489,0.32486692 5.9984202,0.2612244 6.2088287,0.11824814 c 0.1649305,-0.11207319 0.4195068,-0.11207319 0.5844373,0 C 7.0035769,0.2611581 7.0206152,0.32507425 7.0322854,1.0148905 7.0440015,1.7074159 7.0211744,1.843581 6.8687118,1.9906176 6.7007463,2.1526053 6.4910688,2.1958224 6.2958601,2.1086895 Z"
       id="path69"
       inkscape:connector-curvature="0"
       transform="matrix(0.26458333,0,0,0.26458333,66.260864,147.84061)" />
    <path
       style="fill:#91979c;fill-opacity:1;stroke:#91979c;stroke-width:0.03156727;stroke-opacity:1"
       d="M 2.1248204,11.211831 C 1.9926347,11.171676 1.8061943,10.960096 1.7800115,10.82053 1.731575,10.562341 1.7648486,10.508642 2.3127723,9.960718 2.8623227,9.4111676 2.9138945,9.3794268 3.1770328,9.4287918 c 0.1547936,0.029039 0.3396602,0.2150046 0.3864418,0.3887383 0.067978,0.2524499 0.015788,0.3459779 -0.4664717,0.8359559 -0.2369901,0.240783 -0.4742725,0.464598 -0.5272943,0.497367 -0.1196188,0.07393 -0.3143827,0.100624 -0.4448882,0.06098 z"
       id="path71"
       inkscape:connector-curvature="0"
       transform="matrix(0.26458333,0,0,0.26458333,66.260864,147.84061)" />
    <path
       style="fill:#91979c;fill-opacity:1;stroke:#91979c;stroke-width:0.03156727;stroke-opacity:1"
       d="M 6.2958601,12.936442 C 6.1738735,12.882225 6.0746546,12.77339 6.0132613,12.626456 c -0.059344,-0.14203 -0.069794,-1.194489 -0.01386,-1.395954 0.074077,-0.266817 0.3673007,-0.434681 0.6339006,-0.362893 0.165877,0.04467 0.3242336,0.200236 0.3693922,0.362893 0.043892,0.158093 0.045456,1.190716 0.00204,1.347039 -0.087586,0.315366 -0.4238141,0.485598 -0.708874,0.358901 z"
       id="path73"
       inkscape:connector-curvature="0"
       transform="matrix(0.26458333,0,0,0.26458333,66.260864,147.84061)" />
    <path
       style="fill:#91979c;fill-opacity:1;stroke:#91979c;stroke-width:0.03156727;stroke-opacity:1"
       d="M 10.541658,11.207727 C 10.461813,11.185048 10.298476,11.043577 9.9526899,10.697606 9.4183261,10.162957 9.3685517,10.077744 9.4386201,9.8175301 9.4854017,9.6437964 9.6702682,9.4578313 9.8250619,9.4287918 10.0882,9.3794268 10.139772,9.4111676 10.689322,9.960718 c 0.547924,0.547924 0.581198,0.601623 0.532761,0.859812 -0.02791,0.148787 -0.213972,0.351354 -0.359969,0.391906 -0.135616,0.03767 -0.173214,0.03712 -0.320456,-0.0047 z"
       id="path75"
       inkscape:connector-curvature="0"
       transform="matrix(0.26458333,0,0,0.26458333,66.260864,147.84061)" />
    <path
       style="fill:#91979c;fill-opacity:1;stroke:#91979c;stroke-width:0.03156727;stroke-opacity:1"
       d="M 9.6940523,3.5204055 C 9.5741764,3.4613422 9.4527881,3.2919752 9.4214218,3.140018 9.3797097,2.9379391 9.4510643,2.8263995 9.9380712,2.3324043 10.191915,2.0749184 10.437964,1.8440827 10.484847,1.8194362 c 0.289425,-0.1521502 0.698252,0.065991 0.742543,0.3962044 0.03168,0.2362278 -0.0462,0.3589205 -0.536343,0.8448832 -0.247474,0.2453652 -0.489791,0.4612647 -0.538481,0.4797767 -0.128874,0.048998 -0.3370181,0.039966 -0.4585137,-0.019895 z"
       id="path77"
       inkscape:connector-curvature="0"
       transform="matrix(0.26458333,0,0,0.26458333,66.260864,147.84061)" />
    <path
       style="fill:#91979c;fill-opacity:1;stroke:#91979c;stroke-width:0.03156727;stroke-opacity:1"
       d="M 11.102607,6.9430132 C 10.917999,6.8186057 10.845072,6.6786911 10.859232,6.4760828 c 0.01515,-0.2167074 0.109589,-0.3608954 0.290075,-0.4428625 0.112203,-0.050956 0.213423,-0.058855 0.761941,-0.059456 0.59402,-6.511e-4 0.641112,0.00363 0.773143,0.070333 0.370626,0.1872343 0.38802,0.6597298 0.03309,0.8989159 -0.102842,0.069305 -0.13065,0.071777 -0.807437,0.071777 -0.676788,0 -0.704595,-0.00247 -0.807438,-0.071777 z"
       id="path79"
       inkscape:connector-curvature="0"
       transform="matrix(0.26458333,0,0,0.26458333,66.260864,147.84061)" />
  </g>
</svg>
